# Blender v2.76 (sub 0) OBJ File: 'Beetle.blend'
# www.blender.org
mtllib Beetle.mtl
o Cube
v 1.000000 -0.773440 -2.041073
v 1.000000 -0.446137 1.963506
v 1.000000 1.000000 -1.880840
v 0.999999 0.446137 1.963506
v 1.000000 -0.504082 -1.339722
v 1.000000 -0.393310 -0.513915
v 1.000000 -0.548989 0.311892
v 1.000000 -0.438216 1.137699
v 1.000000 1.303290 -1.339722
v 1.000000 1.192518 -0.513915
v 1.000000 1.081745 0.311892
v 1.000000 0.970972 1.137699
v 1.436960 0.433031 -2.057636
v 1.368150 0.164304 2.306418
v 1.555423 0.501703 -1.083771
v 1.568608 0.424552 -0.367674
v 1.569189 0.400372 0.429892
v 1.378834 0.483210 1.232273
v 1.744728 -0.233472 -1.083754
v 1.731555 -0.143187 -0.369133
v 1.730979 -0.104329 0.428405
v 1.622908 -0.204734 1.231107
v 1.718979 -0.521383 -2.057805
v 1.633532 -0.200969 2.307805
v 1.669206 -0.288368 2.400938
v 1.331137 0.226964 2.400938
v 1.562261 0.367213 0.879194
v 1.737870 -0.062759 0.879162
v 1.975122 -0.298287 2.332025
v 1.709740 0.066985 2.330638
v 1.720423 0.385891 1.386552
v 1.964497 -0.302052 1.385386
v 1.675801 -0.140059 2.431052
v 1.544090 0.041227 2.430364
v 1.799182 -0.175211 2.439801
v 1.667471 0.006076 2.439112
v 1.633532 -0.200969 2.307805
v 1.368150 0.164304 2.306418
v 1.975122 -0.298287 2.332025
v 1.709740 0.066985 2.330638
v 1.392628 -0.173635 3.303540
v 1.260917 0.007651 3.302852
v 1.516009 -0.208787 3.312288
v 1.384298 -0.027500 3.311600
v 1.331137 0.652027 0.311892
v 1.331137 0.595673 1.137699
v 1.331137 0.708381 -0.513915
v 1.440704 0.623249 -1.447657
v 1.715233 -0.415448 -1.447482
v 1.669206 -0.286754 1.137699
v 1.669206 -0.429954 -0.513915
v 1.669206 -0.358354 0.311892
v 1.566053 0.388581 0.147732
v 1.734109 -0.097701 0.146254
v 1.444854 0.479289 1.006080
v 1.700586 -0.172643 1.006063
v 1.549544 0.470266 -0.647124
v 1.750642 -0.194113 -0.648867
v 1.445512 0.527476 0.303393
v 1.699984 -0.233980 0.301109
v 1.441191 0.582477 -0.522506
v 1.704306 -0.304229 -0.524816
v 1.442078 0.629511 -1.208098
v 1.703372 -0.363733 -1.208089
v 1.669207 -0.646366 -2.165529
v 1.331138 0.508733 -2.165529
v 1.331138 0.764734 -1.339722
v 1.669206 -0.501553 -1.339722
v 2.427750 -0.149444 0.133317
v 2.485270 -0.328876 0.131830
v 2.425287 -0.161232 0.582619
v 2.487720 -0.314097 0.582587
v 2.427544 -0.140847 -0.664249
v 2.485475 -0.342691 -0.665708
v 2.426635 -0.153636 -0.148843
v 2.486383 -0.326520 -0.150321
v 2.420766 -0.124595 -0.943699
v 2.492260 -0.360796 -0.945442
v 2.422856 -0.113418 -1.380345
v 2.490158 -0.374789 -1.380329
v 2.481004 -0.477148 -2.354380
v 2.380740 -0.137833 -2.354211
v 2.382071 -0.070206 -1.744232
v 2.479672 -0.439486 -1.744057
v -1.000000 -0.773440 -2.041073
v -1.000000 -0.446137 1.963506
v -1.000000 1.000000 -1.880840
v -0.999999 0.446137 1.963506
v 0.000000 -0.773440 -2.041073
v 0.000000 -0.446137 1.963506
v 0.000000 1.105320 -1.994936
v 0.000000 0.446137 1.963506
v -1.000000 -0.504082 -1.339722
v -1.000000 -0.393310 -0.513915
v -1.000000 -0.548989 0.311892
v -1.000000 -0.438216 1.137699
v -1.000000 1.303290 -1.339722
v -1.000000 1.192518 -0.513915
v -1.000000 1.081745 0.311892
v -1.000000 0.970972 1.137699
v 0.000000 1.408610 -1.453818
v 0.000000 1.481024 -0.513915
v 0.000000 1.370251 0.311892
v 0.000000 0.970972 1.137699
v 0.000000 -0.438216 1.137699
v 0.000000 -0.548988 0.311892
v 0.000000 -0.393310 -0.513915
v 0.000000 -0.504082 -1.339722
v -1.436960 0.433031 -2.057636
v -1.368150 0.164304 2.306418
v 0.000000 0.508733 -2.521350
v 0.000000 0.226964 1.963506
v -1.555423 0.501703 -1.083771
v -1.568608 0.424552 -0.367674
v -1.569189 0.400372 0.429892
v -1.378834 0.483210 1.232273
v 0.000000 -0.288368 1.963506
v -1.744728 -0.233472 -1.083754
v -1.731555 -0.143187 -0.369133
v -1.730979 -0.104329 0.428405
v -1.622908 -0.204734 1.231107
v -1.718979 -0.521383 -2.057805
v -1.633532 -0.200969 2.307805
v 0.000000 -0.646366 -2.521350
v -1.669206 -0.288368 2.400938
v -1.331137 0.226964 2.400938
v -1.562261 0.367213 0.879194
v -1.737870 -0.062759 0.879162
v -1.975122 -0.298287 2.332025
v -1.709740 0.066985 2.330638
v -1.720423 0.385891 1.386552
v -1.964497 -0.302052 1.385386
v -1.675801 -0.140059 2.431052
v -1.544090 0.041227 2.430364
v -1.799182 -0.175211 2.439801
v -1.667471 0.006076 2.439112
v -1.633532 -0.200969 2.307805
v -1.368150 0.164304 2.306418
v -1.975122 -0.298287 2.332025
v -1.709740 0.066985 2.330638
v -1.392628 -0.173635 3.303540
v -1.260917 0.007651 3.302852
v -1.516009 -0.208787 3.312288
v -1.384298 -0.027500 3.311600
v -1.331137 0.652027 0.311892
v -1.331137 0.595673 1.137699
v -1.331137 0.708381 -0.513915
v -1.440704 0.623249 -1.447657
v -1.715233 -0.415448 -1.447482
v -1.669206 -0.286754 1.137699
v -1.669206 -0.429954 -0.513915
v -1.669206 -0.358354 0.311892
v -1.566053 0.388581 0.147732
v -1.734109 -0.097701 0.146254
v -1.444854 0.479289 1.006080
v -1.700586 -0.172643 1.006063
v -1.549544 0.470266 -0.647124
v -1.750642 -0.194113 -0.648867
v -1.445512 0.527476 0.303393
v -1.699984 -0.233980 0.301109
v -1.441191 0.582477 -0.522506
v -1.704306 -0.304229 -0.524816
v -1.442078 0.629511 -1.208098
v -1.703372 -0.363733 -1.208089
v -1.669207 -0.646366 -2.165529
v -1.331138 0.508733 -2.165529
v -1.331138 0.764734 -1.339722
v -1.669206 -0.501553 -1.339722
v -2.427750 -0.149444 0.133317
v -2.485270 -0.328876 0.131830
v -2.425287 -0.161232 0.582619
v -2.487720 -0.314097 0.582587
v -2.427544 -0.140847 -0.664249
v -2.485475 -0.342691 -0.665708
v -2.426635 -0.153636 -0.148843
v -2.486383 -0.326520 -0.150321
v -2.420766 -0.124595 -0.943699
v -2.492260 -0.360796 -0.945442
v -2.422856 -0.113418 -1.380345
v -2.490158 -0.374789 -1.380329
v -2.481004 -0.477148 -2.354380
v -2.380740 -0.137833 -2.354211
v -2.382071 -0.070206 -1.744232
v -2.479672 -0.439486 -1.744057
vn 0.492300 0.800300 0.342300
vn 0.045800 -0.938000 -0.343500
vn -0.141100 0.643900 0.752000
vn 0.000000 0.844000 0.536400
vn 0.000000 -1.000000 -0.009600
vn 0.000000 -0.933500 0.358500
vn -0.000000 -0.991100 0.132900
vn -0.000000 -0.982700 -0.185300
vn 0.146100 0.863000 -0.483700
vn 0.192000 0.981200 0.021300
vn 0.274900 0.952900 0.127800
vn 0.136500 0.946500 0.292300
vn 0.787200 0.570800 -0.233500
vn 0.838100 0.542700 0.054900
vn 0.808300 0.585800 0.059300
vn 0.770700 0.634000 0.064200
vn -0.251600 -0.966000 0.058600
vn -0.384000 -0.098900 -0.918000
vn -0.278500 -0.958400 0.062800
vn 0.508200 0.842200 -0.180100
vn -0.278800 -0.091400 0.956000
vn 0.181600 0.622700 -0.761100
vn -0.275600 -0.961300 0.006500
vn 0.226500 -0.974000 -0.004400
vn -0.112900 -0.715800 0.689100
vn 0.117000 -0.958500 0.260000
vn -0.025300 -0.993600 0.109700
vn 0.114200 -0.992200 -0.050500
vn 0.246200 -0.963400 0.106400
vn 0.230700 0.033800 -0.972500
vn 0.822200 0.563500 0.080200
vn 0.892400 0.431700 0.131100
vn 0.936500 0.347100 0.049300
vn 0.900200 0.435500 -0.004500
vn 0.897800 0.434300 0.072400
vn 0.188800 0.935800 0.297700
vn 0.443600 0.158900 -0.882000
vn 0.000000 0.000000 1.000000
vn 0.263900 0.956700 0.122500
vn -0.704500 -0.510000 0.493600
vn 0.678700 0.495100 0.542500
vn -0.269900 -0.823200 0.499400
vn 0.195700 0.820600 0.537000
vn -0.087600 -0.059800 0.994400
vn 0.777500 0.565900 0.274100
vn -0.263900 -0.956700 -0.122500
vn -0.777500 -0.565900 -0.274100
vn 0.738700 0.672400 0.046300
vn 0.745500 0.665100 0.042900
vn 0.751900 0.657700 0.045400
vn 0.852200 0.226000 -0.471900
vn 0.830500 0.321400 0.455000
vn 0.964400 -0.263700 0.022300
vn 0.967200 -0.252700 0.024200
vn 0.970400 -0.240700 0.020500
vn 0.820700 0.271300 -0.502900
vn 0.703300 0.708800 0.054700
vn 0.809400 0.322700 0.490600
vn 0.961500 -0.274100 0.018200
vn 0.864600 0.254400 -0.433200
vn 0.857800 0.289200 0.424800
vn 0.766800 0.640500 0.042400
vn 0.979200 -0.202200 0.018700
vn 0.824100 0.245300 0.510600
vn 0.733600 0.677600 0.051800
vn 0.828100 0.215900 -0.517300
vn 0.939100 -0.342600 0.024500
vn 0.765000 0.224900 -0.603500
vn 0.693300 0.687600 -0.215500
vn 0.817300 0.217200 0.533800
vn 0.908100 -0.412100 0.074300
vn 0.940600 0.339500 -0.001100
vn 0.954100 0.299600 -0.001000
vn 0.963200 0.268700 -0.000900
vn 0.962900 0.268900 -0.023200
vn 0.362700 0.096100 0.926900
vn -0.178700 -0.982000 0.061900
vn 0.058500 -0.991400 0.116900
vn -0.393800 -0.122300 -0.911000
vn -0.387800 -0.107800 -0.915400
vn 0.541900 0.839100 0.047600
vn 0.390100 0.114500 0.913600
vn 0.397600 0.133300 0.907800
vn -0.355300 -0.104800 -0.928900
vn 0.410600 0.167600 0.896300
vn 0.580900 0.812700 0.045000
vn 0.551100 0.833400 0.041300
vn -0.492300 0.800300 0.342300
vn -0.045800 -0.938000 -0.343500
vn 0.141100 0.643900 0.752000
vn -0.146100 0.863000 -0.483700
vn -0.192000 0.981200 0.021300
vn -0.274900 0.952900 0.127800
vn -0.136500 0.946500 0.292300
vn -0.787200 0.570800 -0.233500
vn -0.838100 0.542700 0.054900
vn -0.808300 0.585800 0.059300
vn -0.770700 0.634000 0.064200
vn 0.251600 -0.966000 0.058600
vn 0.384000 -0.098900 -0.918000
vn 0.278500 -0.958400 0.062800
vn -0.508200 0.842200 -0.180100
vn 0.278800 -0.091400 0.956000
vn -0.181600 0.622700 -0.761100
vn 0.275600 -0.961300 0.006500
vn -0.226500 -0.974000 -0.004400
vn 0.112900 -0.715800 0.689100
vn -0.117000 -0.958500 0.260000
vn 0.025300 -0.993600 0.109700
vn -0.114200 -0.992200 -0.050500
vn -0.246200 -0.963400 0.106400
vn -0.230700 0.033800 -0.972500
vn -0.822200 0.563500 0.080200
vn -0.892400 0.431700 0.131100
vn -0.936500 0.347100 0.049300
vn -0.900200 0.435500 -0.004500
vn -0.897800 0.434300 0.072400
vn -0.188800 0.935800 0.297700
vn -0.443600 0.158900 -0.882000
vn -0.263900 0.956700 0.122500
vn 0.704500 -0.510000 0.493600
vn -0.678700 0.495100 0.542500
vn 0.269900 -0.823200 0.499400
vn -0.195700 0.820600 0.537000
vn 0.087600 -0.059800 0.994400
vn -0.777500 0.565900 0.274100
vn 0.263900 -0.956700 -0.122500
vn 0.777500 -0.565900 -0.274100
vn -0.738700 0.672400 0.046300
vn -0.745500 0.665100 0.042900
vn -0.751900 0.657700 0.045400
vn -0.852200 0.226000 -0.471900
vn -0.830500 0.321400 0.455000
vn -0.964400 -0.263700 0.022300
vn -0.967200 -0.252700 0.024200
vn -0.970400 -0.240700 0.020500
vn -0.820700 0.271300 -0.502900
vn -0.703300 0.708800 0.054700
vn -0.809400 0.322700 0.490600
vn -0.961500 -0.274100 0.018200
vn -0.864600 0.254400 -0.433200
vn -0.857800 0.289200 0.424800
vn -0.766800 0.640500 0.042400
vn -0.979200 -0.202200 0.018700
vn -0.824100 0.245300 0.510600
vn -0.733600 0.677600 0.051800
vn -0.828100 0.215900 -0.517300
vn -0.939100 -0.342600 0.024500
vn -0.765000 0.224900 -0.603500
vn -0.693300 0.687600 -0.215500
vn -0.817300 0.217200 0.533800
vn -0.908100 -0.412100 0.074300
vn -0.940600 0.339500 -0.001100
vn -0.954100 0.299600 -0.001000
vn -0.963200 0.268700 -0.000900
vn -0.962900 0.268900 -0.023200
vn -0.362700 0.096100 0.926900
vn 0.178700 -0.982000 0.061900
vn -0.058500 -0.991400 0.116900
vn 0.393800 -0.122300 -0.911000
vn 0.387800 -0.107800 -0.915400
vn -0.541900 0.839100 0.047600
vn -0.390100 0.114500 0.913600
vn -0.397600 0.133300 0.907800
vn 0.355300 -0.104800 -0.928900
vn -0.410600 0.167600 0.896300
vn -0.580900 0.812700 0.045000
vn -0.551100 0.833400 0.041300
usemtl Material
s off
f 46//1 12//1 4//1 26//1
f 65//2 1//2 89//2 124//2
f 26//3 4//3 92//3 112//3
f 12//4 104//4 92//4 4//4
f 8//5 2//5 90//5 105//5
f 1//6 5//6 108//6 89//6
f 5//7 6//7 107//7 108//7
f 6//8 7//8 106//8 107//8
f 7//7 8//7 105//7 106//7
f 3//9 91//9 101//9 9//9
f 9//10 101//10 102//10 10//10
f 10//11 102//11 103//11 11//11
f 11//12 103//12 104//12 12//12
f 66//13 3//13 9//13 67//13
f 67//14 9//14 10//14 47//14
f 47//15 10//15 11//15 45//15
f 45//16 11//16 12//16 46//16
f 54//17 20//17 74//17 76//17
f 19//18 15//18 79//18 80//18
f 28//19 21//19 70//19 72//19
f 13//20 48//20 83//20 82//20
f 25//21 26//21 112//21 117//21
f 3//22 66//22 111//22 91//22
f 24//23 22//23 32//23 29//23
f 8//24 50//24 25//24 2//24
f 2//25 25//25 117//25 90//25
f 1//26 65//26 68//26 5//26
f 5//27 68//27 51//27 6//27
f 6//28 51//28 52//28 7//28
f 7//29 52//29 50//29 8//29
f 66//30 65//30 124//30 111//30
f 24//31 14//31 26//31 25//31
f 14//32 18//32 46//32 26//32
f 18//33 22//33 50//33 46//33
f 22//34 24//34 25//34 50//34
f 32//35 31//35 30//35 29//35
f 18//36 14//36 30//36 31//36
f 22//37 18//37 31//37 32//37
f 30//38 14//38 38//38 40//38
f 36//39 34//39 42//39 44//39
f 29//38 30//38 40//38 39//38
f 24//38 29//38 39//38 37//38
f 14//38 24//38 37//38 38//38
f 33//40 34//40 38//40 37//40
f 36//41 35//41 39//41 40//41
f 35//42 33//42 37//42 39//42
f 34//43 36//43 40//43 38//43
f 42//44 41//44 43//44 44//44
f 35//45 36//45 44//45 43//45
f 33//46 35//46 43//46 41//46
f 34//47 33//47 41//47 42//47
f 55//48 59//48 45//48 46//48
f 59//49 61//49 47//49 45//49
f 61//50 63//50 67//50 47//50
f 63//51 64//51 68//51 67//51
f 56//52 55//52 46//52 50//52
f 64//53 62//53 51//53 68//53
f 62//54 60//54 52//54 51//54
f 60//55 56//55 50//55 52//55
f 17//56 21//56 60//56 59//56
f 27//57 17//57 59//57 55//57
f 28//58 27//58 55//58 56//58
f 21//59 28//59 56//59 60//59
f 16//60 20//60 62//60 61//60
f 54//61 53//61 59//61 60//61
f 53//62 16//62 61//62 59//62
f 20//63 54//63 60//63 62//63
f 58//64 57//64 61//64 62//64
f 57//65 15//65 63//65 61//65
f 15//66 19//66 64//66 63//66
f 19//67 58//67 62//67 64//67
f 13//68 23//68 65//68 66//68
f 48//69 13//69 66//69 67//69
f 49//70 48//70 67//70 68//70
f 23//71 49//71 68//71 65//71
f 70//72 69//72 71//72 72//72
f 74//73 73//73 75//73 76//73
f 80//74 79//74 77//74 78//74
f 81//75 82//75 83//75 84//75
f 48//76 49//76 84//76 83//76
f 58//77 19//77 80//77 78//77
f 49//78 23//78 81//78 84//78
f 21//79 17//79 69//79 70//79
f 20//80 16//80 73//80 74//80
f 17//81 27//81 71//81 69//81
f 57//82 58//82 78//82 77//82
f 53//83 54//83 76//83 75//83
f 23//84 13//84 82//84 81//84
f 27//85 28//85 72//85 71//85
f 15//86 57//86 77//86 79//86
f 16//87 53//87 75//87 73//87
f 146//88 126//88 88//88 100//88
f 165//89 124//89 89//89 85//89
f 126//90 112//90 92//90 88//90
f 100//4 88//4 92//4 104//4
f 96//5 105//5 90//5 86//5
f 85//6 89//6 108//6 93//6
f 93//7 108//7 107//7 94//7
f 94//8 107//8 106//8 95//8
f 95//7 106//7 105//7 96//7
f 87//91 97//91 101//91 91//91
f 97//92 98//92 102//92 101//92
f 98//93 99//93 103//93 102//93
f 99//94 100//94 104//94 103//94
f 166//95 167//95 97//95 87//95
f 167//96 147//96 98//96 97//96
f 147//97 145//97 99//97 98//97
f 145//98 146//98 100//98 99//98
f 154//99 176//99 174//99 119//99
f 118//100 180//100 179//100 113//100
f 128//101 172//101 170//101 120//101
f 109//102 182//102 183//102 148//102
f 125//103 117//103 112//103 126//103
f 87//104 91//104 111//104 166//104
f 123//105 129//105 132//105 121//105
f 96//106 86//106 125//106 150//106
f 86//107 90//107 117//107 125//107
f 85//108 93//108 168//108 165//108
f 93//109 94//109 151//109 168//109
f 94//110 95//110 152//110 151//110
f 95//111 96//111 150//111 152//111
f 166//112 111//112 124//112 165//112
f 123//113 125//113 126//113 110//113
f 110//114 126//114 146//114 116//114
f 116//115 146//115 150//115 121//115
f 121//116 150//116 125//116 123//116
f 132//117 129//117 130//117 131//117
f 116//118 131//118 130//118 110//118
f 121//119 132//119 131//119 116//119
f 130//38 140//38 138//38 110//38
f 136//120 144//120 142//120 134//120
f 129//38 139//38 140//38 130//38
f 123//38 137//38 139//38 129//38
f 110//38 138//38 137//38 123//38
f 133//121 137//121 138//121 134//121
f 136//122 140//122 139//122 135//122
f 135//123 139//123 137//123 133//123
f 134//124 138//124 140//124 136//124
f 142//125 144//125 143//125 141//125
f 135//126 143//126 144//126 136//126
f 133//127 141//127 143//127 135//127
f 134//128 142//128 141//128 133//128
f 155//129 146//129 145//129 159//129
f 159//130 145//130 147//130 161//130
f 161//131 147//131 167//131 163//131
f 163//132 167//132 168//132 164//132
f 156//133 150//133 146//133 155//133
f 164//134 168//134 151//134 162//134
f 162//135 151//135 152//135 160//135
f 160//136 152//136 150//136 156//136
f 115//137 159//137 160//137 120//137
f 127//138 155//138 159//138 115//138
f 128//139 156//139 155//139 127//139
f 120//140 160//140 156//140 128//140
f 114//141 161//141 162//141 119//141
f 154//142 160//142 159//142 153//142
f 153//143 159//143 161//143 114//143
f 119//144 162//144 160//144 154//144
f 158//145 162//145 161//145 157//145
f 157//146 161//146 163//146 113//146
f 113//147 163//147 164//147 118//147
f 118//148 164//148 162//148 158//148
f 109//149 166//149 165//149 122//149
f 148//150 167//150 166//150 109//150
f 149//151 168//151 167//151 148//151
f 122//152 165//152 168//152 149//152
f 170//153 172//153 171//153 169//153
f 174//154 176//154 175//154 173//154
f 180//155 178//155 177//155 179//155
f 181//156 184//156 183//156 182//156
f 148//157 183//157 184//157 149//157
f 158//158 178//158 180//158 118//158
f 149//159 184//159 181//159 122//159
f 120//160 170//160 169//160 115//160
f 119//161 174//161 173//161 114//161
f 115//162 169//162 171//162 127//162
f 157//163 177//163 178//163 158//163
f 153//164 175//164 176//164 154//164
f 122//165 181//165 182//165 109//165
f 127//166 171//166 172//166 128//166
f 113//167 179//167 177//167 157//167
f 114//168 173//168 175//168 153//168
