# Blender v2.76 (sub 0) OBJ File: 'Bobcat.blend'
# www.blender.org
mtllib Bobcat.mtl
o Cube
v -0.922861 -0.307692 -1.573621
v -1.000000 0.881714 -1.937507
v -0.833687 -0.310735 1.391963
v -1.265816 0.392023 1.330580
v -2.322251 -0.422548 -0.725084
v -1.213373 -0.307692 0.403435
v -2.322251 0.385331 -0.725084
v -1.349980 0.544817 0.465802
v -0.593180 -0.307692 -1.573621
v -0.316487 -0.307692 -1.573621
v -0.602830 0.945774 -1.937507
v -0.269497 0.881714 -1.975731
v -0.593180 -0.307692 1.611273
v -0.316488 -0.307692 1.795333
v -0.668379 0.584639 1.734122
v -0.269496 0.657984 2.500908
v -1.399923 0.674763 -0.561641
v -0.674113 0.839452 -0.736971
v -0.813808 0.544817 0.641938
v -0.315542 0.709506 1.039007
v -0.768309 -0.307692 0.549641
v -0.354709 -0.405295 0.879240
v -1.254829 -0.307692 -0.511990
v -0.652351 -0.405294 -0.657527
v -1.321540 -0.352736 -1.915971
v -1.321540 0.313931 -1.915971
v -0.831620 -0.352736 1.656688
v -1.616139 0.313931 1.656688
v -2.886267 -0.352736 -0.243162
v -2.886267 0.313931 -0.243162
v -1.671520 -0.352736 0.465802
v -1.671520 0.313931 0.465802
v -0.602830 0.313931 -2.157303
v -0.602830 -0.352736 -2.157302
v -0.269497 0.313931 -2.583955
v -0.269497 -0.352736 -2.583955
v -0.602830 -0.352736 1.920892
v -1.387349 0.313931 1.920892
v -0.269496 -0.352736 2.795284
v -0.269496 0.313930 2.795284
v -2.881239 -0.019403 -1.434049
v -4.302649 -0.019403 0.505579
v -0.602830 -0.019402 -2.285451
v -0.269497 -0.019403 -2.583955
v -0.706221 -0.019403 2.795284
v -2.074381 -0.019403 1.656688
v -3.231220 -0.019403 0.947724
v -1.649845 0.397966 2.525312
v -0.602830 -0.186069 -2.221376
v -0.269497 -0.186069 -2.583955
v -2.101390 -0.186069 -1.675010
v -3.507648 -0.186069 -0.243162
v -0.487859 -0.186070 2.795284
v -1.453001 -0.186069 1.656688
v -2.451370 -0.186069 0.706763
v -1.126337 0.022615 2.223102
v 0.922861 -0.307692 -1.573621
v 1.000000 0.881714 -1.937507
v 0.833687 -0.310735 1.391963
v 1.265816 0.392023 1.330580
v 0.000000 -0.307693 -1.573623
v 0.000000 0.881714 -1.937507
v 0.000000 -0.307693 1.944143
v 0.000000 0.689023 2.607244
v 2.322251 -0.422548 -0.725084
v 1.213373 -0.307692 0.403435
v 2.322251 0.385331 -0.725084
v 1.349980 0.544817 0.465802
v 0.000000 -0.461067 -0.401034
v 0.000000 -0.461067 0.771554
v 0.000000 0.796208 0.909280
v 0.000000 0.887674 -0.427970
v 0.593180 -0.307692 -1.573621
v 0.316487 -0.307692 -1.573621
v 0.602830 0.945774 -1.937507
v 0.269497 0.881714 -1.975731
v 0.593180 -0.307692 1.611273
v 0.316488 -0.307692 1.795333
v 0.668379 0.584639 1.734122
v 0.269496 0.657984 2.500908
v 1.399923 0.674763 -0.561641
v 0.674113 0.839452 -0.736971
v 0.813808 0.544817 0.641938
v 0.315542 0.709506 1.039007
v 0.768309 -0.307692 0.549641
v 0.354709 -0.405295 0.879240
v 1.254829 -0.307692 -0.511990
v 0.652351 -0.405294 -0.657527
v 1.321540 -0.352736 -1.915971
v 1.321540 0.313931 -1.915971
v 0.831620 -0.352736 1.656688
v 1.616139 0.313931 1.656688
v 0.000000 -0.352736 2.974558
v 0.000000 0.313930 2.974558
v 0.000000 0.313931 -2.520811
v 0.000000 -0.352736 -2.520811
v 2.886267 -0.352736 -0.243162
v 2.886267 0.313931 -0.243162
v 1.671520 -0.352736 0.465802
v 1.671520 0.313931 0.465802
v 0.602830 0.313931 -2.157303
v 0.602830 -0.352736 -2.157302
v 0.269497 0.313931 -2.583955
v 0.269497 -0.352736 -2.583955
v 0.602830 -0.352736 1.920892
v 1.387349 0.313931 1.920892
v 0.269496 -0.352736 2.795284
v 0.269496 0.313930 2.795284
v 2.881239 -0.019403 -1.434049
v 0.000000 -0.019403 4.636817
v 4.302649 -0.019403 0.505579
v 0.602830 -0.019402 -2.285451
v 0.269497 -0.019403 -2.583955
v 0.706221 -0.019403 2.795284
v 2.074381 -0.019403 1.656688
v 0.000000 -0.019403 -2.520811
v 3.231220 -0.019403 0.947724
v 1.649845 0.397966 2.525312
v 0.602830 -0.186069 -2.221376
v 0.269497 -0.186069 -2.583955
v 2.101390 -0.186069 -1.675010
v 0.000000 -0.186070 3.805687
v 3.507648 -0.186069 -0.243162
v 0.487859 -0.186070 2.795284
v 0.000000 -0.186069 -2.520811
v 1.453001 -0.186069 1.656688
v 2.451370 -0.186069 0.706763
v 1.126337 0.022615 2.223102
vt 0.000000 0.000000
vt 1.000000 0.000000
vt 1.000000 1.000000
vt 0.000000 1.000000
vt 0.000000 0.500000
vt 1.000000 0.500000
vt 0.500000 0.000000
vt 0.500000 1.000000
vn -0.377900 0.921100 0.094100
vn -0.024500 -0.992100 -0.123200
vn -0.195000 0.979400 0.052000
vn -0.394200 0.622300 0.676300
vn 0.128700 0.717900 -0.684200
vn -0.053000 0.998600 0.005400
vn -0.150100 0.984800 0.087300
vn -0.089500 -0.988700 0.120400
vn -0.111900 -0.993600 0.012300
vn -0.665900 0.460100 -0.587200
vn -0.227600 0.956600 0.181700
vn 0.076500 -0.997100 -0.003500
vn -0.198800 -0.978200 0.060000
vn 0.006100 -1.000000 -0.003100
vn -0.189700 -0.979400 0.068800
vn -0.222600 0.965800 0.133000
vn -0.285000 0.942900 0.172600
vn -0.266000 0.961600 0.067300
vn -0.077600 0.993500 0.083400
vn -0.218200 0.215800 -0.951700
vn -0.460900 0.504100 -0.730400
vn -0.279200 0.957700 0.069200
vn -0.444800 0.813500 0.374700
vn -0.206900 0.975000 0.080600
vn -0.287700 0.957400 0.026000
vn 0.078200 -0.996600 0.024500
vn -0.128100 -0.985300 -0.113200
vn 0.124300 -0.989700 -0.071600
vn 0.156700 -0.976800 -0.146000
vn 0.040100 -0.997600 0.057300
vn -0.730000 0.129000 -0.671100
vn 0.020200 -0.995900 0.088000
vn -0.327800 0.289800 -0.899200
vn 0.005400 -0.998400 0.055600
vn -0.038800 -0.995100 -0.090900
vn -0.311300 0.914800 -0.257400
vn -0.004900 -0.998900 0.045900
vn 0.025100 -0.998700 -0.044900
vn -0.461800 0.858500 0.223000
vn 0.133900 -0.988100 -0.076300
vn -0.496200 -0.843000 0.207700
vn -0.386500 -0.863500 -0.324100
vn -0.331100 -0.299900 -0.894700
vn -0.697700 -0.135200 -0.703600
vn -0.015000 0.930400 0.366400
vn -0.401600 0.909900 -0.103600
vn -0.118600 0.964600 0.235600
vn 0.228100 0.000000 -0.973600
vn -0.271400 0.946800 0.173200
vn -0.185300 -0.952800 0.240700
vn -0.105900 -0.981100 0.161900
vn -0.260500 -0.827500 0.497400
vn -0.482900 -0.824900 0.294000
vn -0.513200 -0.828100 0.225300
vn -0.297500 -0.859800 0.415000
vn -0.183000 -0.950600 0.250600
vn -0.200000 -0.964600 0.171700
vn -0.758100 -0.123100 -0.640400
vn -0.322100 -0.272400 -0.906700
vn -0.264900 -0.930400 -0.253500
vn -0.394300 -0.884100 0.251000
vn 0.377900 0.921100 0.094100
vn 0.024500 -0.992100 -0.123200
vn 0.195000 0.979400 0.052000
vn 0.394200 0.622300 0.676300
vn -0.128700 0.717900 -0.684200
vn 0.053000 0.998600 0.005400
vn 0.150100 0.984800 0.087300
vn 0.089500 -0.988700 0.120400
vn 0.111900 -0.993600 0.012300
vn 0.665900 0.460100 -0.587200
vn 0.227600 0.956600 0.181700
vn -0.076500 -0.997100 -0.003500
vn 0.198800 -0.978200 0.060000
vn -0.006100 -1.000000 -0.003100
vn 0.189700 -0.979400 0.068800
vn 0.222600 0.965800 0.133000
vn 0.285000 0.942900 0.172600
vn 0.266000 0.961600 0.067300
vn 0.077600 0.993500 0.083400
vn 0.218200 0.215800 -0.951700
vn 0.460900 0.504100 -0.730400
vn 0.279200 0.957700 0.069200
vn 0.444800 0.813500 0.374700
vn 0.206900 0.975000 0.080600
vn 0.287700 0.957400 0.026000
vn -0.078200 -0.996600 0.024500
vn 0.128100 -0.985300 -0.113200
vn -0.124300 -0.989700 -0.071600
vn -0.156700 -0.976800 -0.146000
vn -0.040100 -0.997600 0.057300
vn 0.730000 0.129000 -0.671100
vn -0.020200 -0.995900 0.088000
vn 0.327800 0.289800 -0.899200
vn -0.005400 -0.998400 0.055600
vn 0.038800 -0.995100 -0.090900
vn 0.311300 0.914800 -0.257400
vn 0.004900 -0.998900 0.045900
vn -0.025100 -0.998700 -0.044900
vn 0.461800 0.858500 0.223000
vn -0.133900 -0.988100 -0.076300
vn 0.496200 -0.843000 0.207700
vn 0.386500 -0.863500 -0.324100
vn 0.331100 -0.299900 -0.894700
vn 0.697700 -0.135200 -0.703600
vn 0.015000 0.930400 0.366400
vn 0.401600 0.909900 -0.103600
vn 0.118600 0.964600 0.235600
vn -0.228100 0.000000 -0.973600
vn 0.271400 0.946800 0.173200
vn 0.185300 -0.952800 0.240700
vn 0.105900 -0.981100 0.161900
vn 0.260500 -0.827500 0.497400
vn 0.482900 -0.824900 0.294000
vn 0.513200 -0.828100 0.225300
vn 0.297500 -0.859800 0.415000
vn 0.183000 -0.950600 0.250600
vn 0.200000 -0.964600 0.171700
vn 0.758100 -0.123100 -0.640400
vn 0.322100 -0.272400 -0.906700
vn 0.264900 -0.930400 -0.253500
vn 0.394300 -0.884100 0.251000
usemtl Material
s off
f 32/1/1 28/2/1 4/3/1 8/4/1
f 24/1/2 10/2/2 61/3/2 69/4/2
f 20/1/3 16/2/3 64/3/3 71/4/3
f 40/1/4 94/2/4 64/3/4 16/4/4
f 35/1/5 12/2/5 62/3/5 95/4/5
f 12/1/6 18/2/6 72/3/6 62/4/6
f 18/1/7 20/2/7 71/3/7 72/4/7
f 14/1/8 22/2/8 70/3/8 63/4/8
f 22/1/9 24/2/9 69/3/9 70/4/9
f 26/1/10 30/2/10 7/3/10 2/4/10
f 30/1/11 32/2/11 8/3/11 7/4/11
f 6/1/12 5/2/12 23/3/12 21/4/12
f 21/1/13 23/2/13 24/3/13 22/4/13
f 3/1/14 6/2/14 21/3/14 13/4/14
f 13/1/15 21/2/15 22/3/15 14/4/15
f 7/1/16 8/2/16 19/3/16 17/4/16
f 17/1/17 19/2/17 20/3/17 18/4/17
f 2/1/18 7/2/18 17/3/18 11/4/18
f 11/1/19 17/2/19 18/3/19 12/4/19
f 26/1/20 2/2/20 11/3/20 33/4/20
f 33/1/21 11/2/21 12/3/21 35/4/21
f 28/1/22 38/2/22 15/3/22 4/4/22
f 38/1/23 40/2/23 16/3/23 15/4/23
f 8/1/24 4/2/24 15/3/24 19/4/24
f 19/1/25 15/2/25 16/3/25 20/4/25
f 5/1/26 1/2/26 9/3/26 23/4/26
f 23/1/27 9/2/27 10/3/27 24/4/27
f 13/1/28 14/2/28 39/3/28 37/4/28
f 3/1/29 13/2/29 37/3/29 27/4/29
f 9/1/30 34/2/30 36/3/30 10/4/30
f 43/1/31 33/2/31 35/3/31 44/4/31
f 1/1/32 25/2/32 34/3/32 9/4/32
f 41/1/33 26/2/33 33/3/33 43/4/33
f 5/1/34 6/2/34 31/3/34 29/4/34
f 1/1/35 5/2/35 29/3/35 25/4/35
f 41/1/36 42/2/36 30/3/36 26/4/36
f 10/1/37 36/2/37 96/3/37 61/4/37
f 14/1/38 63/2/38 93/3/38 39/4/38
f 45/1/39 110/2/39 94/3/39 40/4/39
f 6/1/40 3/2/40 27/3/40 31/4/40
f 53/5/41 122/6/41 110/3/41 45/4/41
f 51/5/42 52/6/42 42/3/42 41/4/42
f 51/7/43 41/2/43 43/3/43 49/8/43
f 49/7/44 43/2/44 44/3/44 50/8/44
f 48/1/45 45/2/45 40/3/45 38/4/45
f 46/1/46 48/2/46 38/3/46 28/4/46
f 42/1/47 47/2/47 32/3/47 30/4/47
f 44/1/48 35/2/48 95/3/48 116/4/48
f 47/1/49 46/2/49 28/3/49 32/4/49
f 55/5/50 54/6/50 46/3/50 47/4/50
f 50/7/48 44/2/48 116/3/48 125/8/48
f 52/5/51 55/6/51 47/3/51 42/4/51
f 54/5/52 56/6/52 48/3/52 46/4/52
f 56/5/53 53/6/53 45/3/53 48/4/53
f 37/1/54 39/2/54 53/6/54 56/5/54
f 27/1/55 37/2/55 56/6/55 54/5/55
f 29/1/56 31/2/56 55/6/56 52/5/56
f 36/1/48 50/7/48 125/8/48 96/4/48
f 31/1/57 27/2/57 54/6/57 55/5/57
f 34/1/58 49/7/58 50/8/58 36/4/58
f 25/1/59 51/7/59 49/8/59 34/4/59
f 25/1/60 29/2/60 52/6/60 51/5/60
f 39/1/61 93/2/61 122/6/61 53/5/61
f 100/1/62 68/4/62 60/3/62 92/2/62
f 88/1/63 69/4/63 61/3/63 74/2/63
f 84/1/64 71/4/64 64/3/64 80/2/64
f 108/1/65 80/4/65 64/3/65 94/2/65
f 103/1/66 95/4/66 62/3/66 76/2/66
f 76/1/67 62/4/67 72/3/67 82/2/67
f 82/1/68 72/4/68 71/3/68 84/2/68
f 78/1/69 63/4/69 70/3/69 86/2/69
f 86/1/70 70/4/70 69/3/70 88/2/70
f 90/1/71 58/4/71 67/3/71 98/2/71
f 98/1/72 67/4/72 68/3/72 100/2/72
f 66/1/73 85/4/73 87/3/73 65/2/73
f 85/1/74 86/4/74 88/3/74 87/2/74
f 59/1/75 77/4/75 85/3/75 66/2/75
f 77/1/76 78/4/76 86/3/76 85/2/76
f 67/1/77 81/4/77 83/3/77 68/2/77
f 81/1/78 82/4/78 84/3/78 83/2/78
f 58/1/79 75/4/79 81/3/79 67/2/79
f 75/1/80 76/4/80 82/3/80 81/2/80
f 90/1/81 101/4/81 75/3/81 58/2/81
f 101/1/82 103/4/82 76/3/82 75/2/82
f 92/1/83 60/4/83 79/3/83 106/2/83
f 106/1/84 79/4/84 80/3/84 108/2/84
f 68/1/85 83/4/85 79/3/85 60/2/85
f 83/1/86 84/4/86 80/3/86 79/2/86
f 65/1/87 87/4/87 73/3/87 57/2/87
f 87/1/88 88/4/88 74/3/88 73/2/88
f 77/1/89 105/4/89 107/3/89 78/2/89
f 59/1/90 91/4/90 105/3/90 77/2/90
f 73/1/91 74/4/91 104/3/91 102/2/91
f 112/1/92 113/4/92 103/3/92 101/2/92
f 57/1/93 73/4/93 102/3/93 89/2/93
f 109/1/94 112/4/94 101/3/94 90/2/94
f 65/1/95 97/4/95 99/3/95 66/2/95
f 57/1/96 89/4/96 97/3/96 65/2/96
f 109/1/97 90/4/97 98/3/97 111/2/97
f 74/1/98 61/4/98 96/3/98 104/2/98
f 78/1/99 107/4/99 93/3/99 63/2/99
f 114/1/100 108/4/100 94/3/100 110/2/100
f 66/1/101 99/4/101 91/3/101 59/2/101
f 124/5/102 114/4/102 110/3/102 122/6/102
f 121/5/103 109/4/103 111/3/103 123/6/103
f 121/7/104 119/8/104 112/3/104 109/2/104
f 119/7/105 120/8/105 113/3/105 112/2/105
f 118/1/106 106/4/106 108/3/106 114/2/106
f 115/1/107 92/4/107 106/3/107 118/2/107
f 111/1/108 98/4/108 100/3/108 117/2/108
f 113/1/109 116/4/109 95/3/109 103/2/109
f 117/1/110 100/4/110 92/3/110 115/2/110
f 127/5/111 117/4/111 115/3/111 126/6/111
f 120/7/109 125/8/109 116/3/109 113/2/109
f 123/5/112 111/4/112 117/3/112 127/6/112
f 126/5/113 115/4/113 118/3/113 128/6/113
f 128/5/114 118/4/114 114/3/114 124/6/114
f 105/1/115 128/5/115 124/6/115 107/2/115
f 91/1/116 126/5/116 128/6/116 105/2/116
f 97/1/117 123/5/117 127/6/117 99/2/117
f 104/1/109 96/4/109 125/8/109 120/7/109
f 99/1/118 127/5/118 126/6/118 91/2/118
f 102/1/119 104/4/119 120/8/119 119/7/119
f 89/1/120 102/4/120 119/8/120 121/7/120
f 89/1/121 121/5/121 123/6/121 97/2/121
f 107/1/122 124/5/122 122/6/122 93/2/122
